PathFileType	4	(X/Y/Z)	/Users/itak/Documents/Research/Walk-IL/dataset/trc/00273_00010.trc
DataRate	CameraRate	NumFrames	NumMarkers	Units	OrigDataRate	OrigDataStartFrame	OrigNumFrames
100.000000	100.000000	4	53	mm	100.000000	441	505
Frame#	Time	RPSI			LPSI			L3			STRN			T10			C7			CLAV			RBAK			LBAK			LSHO			LUPA			LAEL			LAOL			LWTS			LWPS			LFRA			LIFD			LHPS			LHTS			RSHO			RUPA			RAEL			RAOL			RWTS			RWPS			RFRA			RIFD			RHTS			RHPS			RBHD			LFHD			RFHD			LBHD			LHIP			RHIP			RASI			LKNE			LTHI			LANK			LTIP			LTOE			LMT1			LMT5			LHEE			RKNE			RTHI			RANK			RTIP			RTOE			RMT1			RMT5			RHEE			LASI			
		X1	Y1	Z1	X2	Y2	Z2	X3	Y3	Z3	X4	Y4	Z4	X5	Y5	Z5	X6	Y6	Z6	X7	Y7	Z7	X8	Y8	Z8	X9	Y9	Z9	X10	Y10	Z10	X11	Y11	Z11	X12	Y12	Z12	X13	Y13	Z13	X14	Y14	Z14	X15	Y15	Z15	X16	Y16	Z16	X17	Y17	Z17	X18	Y18	Z18	X19	Y19	Z19	X20	Y20	Z20	X21	Y21	Z21	X22	Y22	Z22	X23	Y23	Z23	X24	Y24	Z24	X25	Y25	Z25	X26	Y26	Z26	X27	Y27	Z27	X28	Y28	Z28	X29	Y29	Z29	X30	Y30	Z30	X31	Y31	Z31	X32	Y32	Z32	X33	Y33	Z33	X34	Y34	Z34	X35	Y35	Z35	X36	Y36	Z36	X37	Y37	Z37	X38	Y38	Z38	X39	Y39	Z39	X40	Y40	Z40	X41	Y41	Z41	X42	Y42	Z42	X43	Y43	Z43	X44	Y44	Z44	X45	Y45	Z45	X46	Y46	Z46	X47	Y47	Z47	X48	Y48	Z48	X49	Y49	Z49	X50	Y50	Z50	X51	Y51	Z51	X52	Y52	Z52	X53	Y53	Z53	

442	4.41	-1285.718994140625	1009.888671875	96.29850769042969	-1290.787719726562	1004.103454589844	-79.51649475097656	-1268.7998046875	1078.170654296875	4.522517204284668	-1022.633728027344	1254.935302734375	-9.411455154418945	-1285.658325195312	1190.5126953125	4.216922283172607	-1243.850830078125	1436.455810546875	-18.66644668579102	-1087.748413085938	1353.512451171875	-12.91716480255127	-1292.365844726562	1299.359619140625	62.60193634033203	-1262.21044921875	1396.4814453125	-121.5113220214844	-1171.920043945312	1401.8076171875	-175.1756134033203	-1196.57177734375	1282.719604492188	-246.4780426025391	-1191.107421875	1079.125610351562	-255.6537170410156	-1261.864501953125	1069.504760742188	-205.8798828125	-1126.49365234375	857.0512084960938	-195.116455078125	-1151.039184570312	847.0003662109375	-262.7391357421875	-1179.273071289062	975.0146484375	-260.4366149902344	-1119.339721679688	667.54150390625	-194.6302185058594	-1149.352783203125	758.8208618164062	-261.921142578125	-1102.194702148438	758.5098876953125	-214.5967864990234	-1172.151245117188	1416.053466796875	139.6499176025391	-1175.86669921875	1358.1923828125	207.5340881347656	-1189.944580078125	1095.429443359375	264.1547241210938	-1230.981201171875	1085.959228515625	177.2988891601562	-1100.902709960938	867.0151977539062	216.1771240234375	-1141.12158203125	866.77001953125	291.13232421875	-1168.41552734375	1027.552612304688	276.9287414550781	-1106.7275390625	681.5404052734375	222.9561462402344	-1077.744750976562	750.1757202148438	236.7239685058594	-1123.809814453125	754.3445434570312	290.0973815917969	-1212.940063476562	1595.87890625	58.04142761230469	-1046.947998046875	1634.460205078125	-68.81568908691406	-1043.809936523438	1630.463012695312	23.87725830078125	-1217.29150390625	1591.703735351562	-88.52468109130859	-1220.869750976562	955.9869384765625	-175.2405242919922	-1179.309936523438	959.842529296875	195.7580261230469	-1064.122314453125	966.2076416015625	120.8266067504883	-1169.139526367188	491.8208312988281	-151.8956909179688	-1172.833251953125	634.5204467773438	-171.4786376953125	-1254.964599609375	47.80158233642578	-139.6829376220703	-1222.501342773438	269.1090087890625	-155.5031280517578	-1049.762939453125	44.48603820800781	-73.14907073974609	-1120.510009765625	35.58506393432617	-35.9017333984375	-1130.237060546875	48.65627288818359	-147.7844390869141	-1303.195068359375	38.77140426635742	-82.93534851074219	-1152.100708007812	485.5395202636719	154.8366241455078	-1121.399047851562	746.8671264648438	187.4269256591797	-1240.495239257812	47.88019561767578	131.1006927490234	-1150.81298828125	361.9115295410156	138.4389495849609	-1047.486572265625	50.87296295166016	66.94054412841797	-1106.6494140625	45.49507522583008	31.51838111877441	-1131.799072265625	43.80481338500977	146.3720855712891	-1296.610107421875	42.17473220825195	84.15863037109375	-1082.60888671875	964.7149658203125	-130.4103546142578	
443	4.42	-1286.375366210938	1009.835876464844	94.77245330810547	-1290.868896484375	1003.928344726562	-81.02257537841797	-1269.238891601562	1077.908813476562	3.160651445388794	-1023.236572265625	1254.9765625	-10.43199157714844	-1286.217163085938	1190.22216796875	3.004501104354858	-1244.669677734375	1436.306762695312	-19.46588706970215	-1088.555419921875	1353.474243164062	-13.84253120422363	-1293.06689453125	1299.128173828125	61.82675552368164	-1262.985717773438	1396.366088867188	-122.3482055664062	-1172.704345703125	1401.915893554688	-176.0021667480469	-1197.161987304688	1283.085083007812	-247.6889801025391	-1190.935302734375	1079.517822265625	-257.9898681640625	-1261.762817382812	1069.442626953125	-208.3672332763672	-1126.068725585938	857.213623046875	-197.6412963867188	-1150.015502929688	847.4391479492188	-265.5338439941406	-1178.7626953125	975.3928833007812	-263.1362609863281	-1119.415893554688	667.679443359375	-198.4437713623047	-1148.317138671875	759.3245849609375	-265.1948852539062	-1101.806518554688	758.7337646484375	-217.2034301757812	-1172.7158203125	1415.785034179688	138.7822570800781	-1175.893432617188	1357.6669921875	206.5533294677734	-1187.135986328125	1094.67626953125	263.0335998535156	-1229.4462890625	1084.9990234375	176.7486267089844	-1094.809936523438	868.1888427734375	212.3816833496094	-1134.049072265625	866.6207885742188	287.8831176757812	-1164.581298828125	1026.892578125	275.0948486328125	-1096.302368164062	682.7398071289062	218.0556030273438	-1068.82275390625	751.822998046875	231.9261627197266	-1114.209594726562	754.5764770507812	285.8659057617188	-1213.533569335938	1596.008544921875	57.20490264892578	-1047.865112304688	1634.309326171875	-70.17296600341797	-1044.479248046875	1630.47998046875	22.53886985778809	-1218.249633789062	1591.546264648438	-89.34298706054688	-1220.835815429688	955.802001953125	-176.6423797607422	-1180.434204101562	959.6292724609375	194.0913848876953	-1064.716796875	966.40771484375	119.8578948974609	-1170.844116210938	491.7129211425781	-152.1466369628906	-1173.881225585938	634.3159790039062	-172.0585479736328	-1254.96435546875	47.7047119140625	-139.6810302734375	-1223.709594726562	269.1108703613281	-155.6904449462891	-1049.786743164062	44.47927474975586	-73.12705993652344	-1120.530639648438	35.57257080078125	-35.87085342407227	-1130.250854492188	48.66181945800781	-147.7728118896484	-1303.267700195312	38.69242095947266	-82.96568298339844	-1152.572143554688	485.7640991210938	154.4515533447266	-1122.022705078125	746.91748046875	186.4889373779297	-1240.456298828125	47.90745544433594	131.0920715332031	-1151.217163085938	362.0933227539062	138.2817687988281	-1047.42138671875	50.72738265991211	66.97438812255859	-1106.5546875	45.52555465698242	31.55237007141113	-1131.75	43.73567581176758	146.39404296875	-1296.544799804688	42.24424362182617	84.13491058349609	-1082.662475585938	964.6128540039062	-131.4494171142578	
444	4.43	-1287.054809570312	1009.786010742188	93.25679016113281	-1290.886840820312	1003.754699707031	-82.50288391113281	-1269.678588867188	1077.641357421875	1.802026987075806	-1023.807739257812	1254.987060546875	-11.36886978149414	-1286.760375976562	1189.925415039062	1.794313788414001	-1245.457641601562	1436.14501953125	-20.24425315856934	-1089.286376953125	1353.409912109375	-14.70155715942383	-1293.758544921875	1298.884887695312	61.03546905517578	-1263.718383789062	1396.234252929688	-123.1623306274414	-1173.444702148438	1401.998413085938	-176.804931640625	-1197.825805664062	1283.430541992188	-248.858642578125	-1190.960205078125	1079.90966796875	-260.3330993652344	-1261.73291015625	1069.3701171875	-210.7084503173828	-1125.503295898438	857.4525146484375	-200.4778442382812	-1149.288208007812	847.8203125	-268.4622802734375	-1178.469970703125	975.7684936523438	-265.8958435058594	-1119.85498046875	668.0406494140625	-202.3464813232422	-1147.552368164062	759.73486328125	-268.3754577636719	-1101.317260742188	758.9886474609375	-220.1339111328125	-1173.296264648438	1415.47607421875	137.9667816162109	-1175.99072265625	1357.12646484375	205.6143798828125	-1184.412963867188	1093.9296875	261.9552612304688	-1227.974365234375	1084.008056640625	176.2594757080078	-1088.762329101562	869.512939453125	208.5953521728516	-1127.003784179688	866.6177368164062	284.6170043945312	-1160.791015625	1026.289916992188	273.3154296875	-1085.742797851562	684.1751708984375	213.0912017822266	-1059.833251953125	753.7302856445312	227.0793609619141	-1104.53955078125	755.02685546875	281.5809631347656	-1214.120849609375	1596.097900390625	56.39664077758789	-1048.786987304688	1634.1455078125	-71.49919891357422	-1045.141479492188	1630.513061523438	21.22037315368652	-1219.194580078125	1591.335571289062	-90.13208770751953	-1220.734375	955.5888671875	-178.0004272460938	-1181.521484375	959.4466552734375	192.4988555908203	-1065.324951171875	966.57421875	118.9372329711914	-1172.445678710938	491.5854187011719	-152.3943786621094	-1174.85107421875	634.0986328125	-172.6129760742188	-1254.964965820312	47.6137809753418	-139.6863250732422	-1224.832641601562	269.1041870117188	-155.8739166259766	-1049.808471679688	44.46971130371094	-73.09898376464844	-1120.546264648438	35.55645751953125	-35.8395881652832	-1130.25830078125	48.66841888427734	-147.7536926269531	-1303.323120117188	38.61386871337891	-82.99501037597656	-1152.986938476562	485.9845581054688	154.0778198242188	-1122.638671875	746.9953002929688	185.6069183349609	-1240.431030273438	47.92602157592773	131.0865173339844	-1151.566284179688	362.2812805175781	138.1419830322266	-1047.378540039062	50.63539886474609	67.03721618652344	-1106.472534179688	45.56007385253906	31.5833854675293	-1131.73046875	43.69044876098633	146.4303436279297	-1296.491333007812	42.30852890014648	84.11306762695312	-1082.614501953125	964.4769897460938	-132.4563751220703	
445	4.44	-1287.745849609375	1009.7470703125	91.75409698486328	-1290.843994140625	1003.590637207031	-83.95630645751953	-1270.119506835938	1077.381225585938	0.4464027583599091	-1024.352416992188	1254.978271484375	-12.22442531585693	-1287.28369140625	1189.63232421875	0.5806998014450073	-1246.217163085938	1435.976928710938	-21.00634765625	-1089.968383789062	1353.323364257812	-15.50015544891357	-1294.446166992188	1298.63720703125	60.22759246826172	-1264.405395507812	1396.097534179688	-123.9590530395508	-1174.13232421875	1402.071533203125	-177.5826568603516	-1198.539184570312	1283.758666992188	-249.9860534667969	-1191.162963867188	1080.313720703125	-262.6363830566406	-1261.761474609375	1069.30419921875	-212.871826171875	-1124.79833984375	857.787841796875	-203.5978240966797	-1148.8505859375	848.1600341796875	-271.4945678710938	-1178.380859375	976.1549072265625	-268.6686096191406	-1120.30859375	668.5856323242188	-206.164794921875	-1147.03759765625	760.06591796875	-271.4368591308594	-1100.701049804688	759.3051147460938	-223.3578643798828	-1173.891479492188	1415.138671875	137.1936340332031	-1176.174560546875	1356.583251953125	204.7151794433594	-1181.787719726562	1093.19873046875	260.9067687988281	-1226.546630859375	1083.00390625	175.8033294677734	-1082.7685546875	870.998779296875	204.8411254882812	-1120.014526367188	866.7731323242188	281.3457336425781	-1157.06298828125	1025.761962890625	271.5827026367188	-1075.125732421875	685.856201171875	208.0802307128906	-1050.816528320312	755.9031982421875	222.2168731689453	-1094.864135742188	755.7176513671875	277.2559509277344	-1214.700317382812	1596.150390625	55.60760498046875	-1049.711181640625	1633.974731445312	-72.78982543945312	-1045.793212890625	1630.564697265625	19.92411041259766	-1220.123657226562	1591.078857421875	-90.89524841308594	-1220.557495117188	955.3549194335938	-179.3111419677734	-1182.5556640625	959.3143920898438	191.0021209716797	-1065.948486328125	966.7138061523438	118.0604400634766	-1173.9501953125	491.4418640136719	-152.6603240966797	-1175.74169921875	633.8775634765625	-173.1531066894531	-1254.971435546875	47.52836227416992	-139.7045593261719	-1225.8740234375	269.0894165039062	-156.0604553222656	-1049.830322265625	44.45851135253906	-73.06613922119141	-1120.562744140625	35.54122161865234	-35.80897903442383	-1130.2607421875	48.67285919189453	-147.7312927246094	-1303.362426757812	38.53410720825195	-83.02723693847656	-1153.3349609375	486.1934814453125	153.7153167724609	-1123.275756835938	747.1180419921875	184.8050384521484	-1240.415161132812	47.93861770629883	131.0809936523438	-1151.85009765625	362.4635620117188	138.0115509033203	-1047.355346679688	50.58114242553711	67.12558746337891	-1106.403930664062	45.59311676025391	31.6126537322998	-1131.734619140625	43.66537857055664	146.4749908447266	-1296.447998046875	42.36917114257812	84.09027862548828	-1082.4814453125	964.3119506835938	-133.4153900146484	
